<svg version="1.0" xmlns="http://www.w3.org/2000/svg" width="1472" height="778.667" viewBox="0 0 1104 584"><path d="M272 94.1c-35.3 2.9-63.1 13.8-81.1 31.8-10.9 11-17.6 22.1-23.1 38.4-2.6 7.7-3.2 11.2-3.6 21.2-.8 20.9 4.1 32.9 19.3 48 19.9 19.7 30.8 27.2 62 42.5 12.1 6 24.8 12.7 28.2 14.9C280 295 285 301 285 304.5c-.1 2.8-7.5 8.8-14 11.2-13 4.9-20.8 5.8-49.5 5.8-27 0-39-.9-62.9-4.5-10.6-1.6-12.4-1.6-16.1-.3-3.8 1.3-4.4 1.9-5.8 6.6-1.5 4.8-5.7 54.2-5.7 67.2 0 6.7 1.9 9.2 7.6 10.1 4 .6 4.7 1.1 6.5 4.6 1.1 2.2 1.8 4.2 1.5 4.6-.3.3-3.6.4-7.3.3-6.6-.2-6.9-.1-10.2 3.3l-3.4 3.5-2.8 32.7c-2.6 29.8-2.7 32.9-1.3 35.6 3.3 6.3-30.3 5.8 415.2 5.6 389.7-.3 406.9-.4 409.5-2.1 4.8-3.1 5.5-6.4 8.2-39.4 2.3-28.4 2.4-31.5 1-34.2-.8-1.6-2.1-3.3-2.7-3.8-.7-.4-15-1-31.8-1.3l-30.5-.5 8.5-2.7c4.7-1.5 13.1-5 18.7-7.7 31.8-15.6 50.7-37.2 62-71 3.5-10.4 3.6-11 3.5-26.1 0-12.4-.4-17-2.1-23.3-4.4-16.6-11.4-27-26.6-39.4-20.2-16.4-23.4-18.2-55-31.1-19.6-8-41.8-18-37.3-16.8.9.3 17.4.6 36.5.7 25.5.1 35.5-.2 37.4-1.1 4-1.8 5.8-7.1 6.9-21 3.6-45.2 4.1-53.9 3-55.9-1.3-2.6-6.1-5.1-9.5-5.1-1.9 0-2.5-.5-2.5-2.3 0-3.5-2.7-6.5-6.8-7.7-2-.5-9.5-1.7-16.7-2.5-94.5-10.8-148.7 6.2-172 54-5.6 11.5-8.3 20.8-9.3 31.5l-.7 8.5-4.8-8.6c-9.6-17.1-19.9-28.9-40.6-46.4C651.4 108.6 617.4 96 576.5 96c-37.7 0-71.6 10.8-105 33.4-13.6 9.2-35.5 31.3-44.5 45.1-13.1 19.8-21.8 41-25.5 62-.9 4.9-1.8 9.6-2 10.3-.5 1.3-4-1.4-17.4-13.5-7.2-6.4-18.1-12.7-33-18.9-7.5-3.1-20.6-8.6-29.1-12.1-16.6-7-26.2-11.7-22-10.9 1.4.3 17.8.6 36.5.7 25 .1 34.7-.2 36.6-1.1 4-1.8 5.8-7.1 6.9-21 4-50.3 4.1-53.9 3-56-1.2-2.3-6.6-5-10-5-1.1 0-2-.7-2-1.5 0-.9-.7-2.9-1.5-4.5-1.9-3.6-4.7-4.4-22.5-6.5-30-3.4-51.8-4.1-73-2.4zm72 6.8c14.3 1.8 16.7 2.3 18.3 4.2.9 1.2 1.7 2.6 1.7 3.3-.1 5.1-5 64.5-5.5 65.8-.4.9-1.8 1.9-3.3 2.3-1.4.3-19.7.3-40.7 0-32.2-.6-38.3-.5-39.9.7-2.7 2.1-1.3 5.1 4.2 9.4 6.3 4.9 30.6 16.6 53.4 25.8 28.7 11.6 39.1 17.2 49 26.4 13.5 12.6 20.7 33.7 19.5 57.2-1.5 27.7-18.3 57.7-42.6 76.1-13.8 10.4-35 19.6-56.2 24.3-23.7 5.2-32.8 6-69.4 6.1-33 0-41.8-.5-74.5-4.1-16.1-1.8-20.6-2.9-21.9-5.3-.7-1.1-.1-13.2 1.5-35.7 2.4-31.8 2.7-34 4.7-35.8 2.4-2 2.2-2 25.7 1.2 58.3 8.2 107.8 3.1 119.5-12.2 3.2-4.2 3.1-6.9-.4-13.1-6.5-11.2-18.8-19.8-51.8-36.3-35.9-17.8-47.4-26.1-57.3-40.9-7-10.5-9.5-19-9.3-32.3.1-12.9 2.6-22.9 8.8-35.6 15-30.8 43-47.7 88.5-53.3 12.4-1.6 59.2-.5 78 1.8zm564.5 0c22.4 2.7 21.3 1.4 19.5 21.9-.5 6.4-1.7 20.7-2.5 31.7-1.3 16.7-1.8 20.2-3.3 21.3-1.4 1.1-8.9 1.2-39.8.6-21-.4-39.3-.4-40.7 0-3.2.8-4.1 3.3-2.2 6.2 3.5 5.4 25.9 17 57 29.4 36.4 14.6 48.8 22.6 58.5 37.5 7.9 12.2 11.7 29.1 10.7 47.6-.5 10.5-4.9 25.3-10.8 37.1-16.5 32.7-48.4 54.4-92.9 63.2-23.9 4.7-29.7 5.1-66 5.1-24.9-.1-39.4-.6-52-1.8-43.3-4.3-44.6-4.7-43.4-14.7l.6-5.5-3.9 3.8c-7.5 7.2-18.7 9.5-27.3 5.6-8.6-3.9-11.8-9.2-10.5-17.5 1.6-11 14.8-18.1 28.2-15.4 4.6 1 6.6 2.1 10 5.4l4.2 4.2.5-5c.3-2.8 1.2-12.6 1.9-21.8.9-11.1 1.8-17.2 2.7-18.4 1.6-1.9 3.4-1.8 27 1.5 53.7 7.6 101 3.5 116.3-9.8 6.8-6 5.8-12.9-3.4-22.6-7.9-8.4-20.4-16.3-44.6-28.3-30.6-15.2-40.5-21.3-50.8-31.7-17.7-17.6-22.5-40.7-13.9-66.5 12.5-37.4 44.2-59.4 93.5-64.9 14-1.6 58.1-.6 77.4 1.8zm-308 1.2c33.5 5.1 62.5 19.6 84.6 42.6 18.1 18.8 29.3 39.6 35 64.8 1.9 8.4 2.2 13 2.2 29 .1 21.3-1.3 29.8-8 48.8-19 54.8-68.4 96.8-129.3 109.8-9.2 2-13.5 2.3-34 2.3-20.7.1-24.7-.2-33.6-2.1-53.9-11.9-93.8-47.3-108.3-96-5.7-19.2-6.6-48.6-2.2-69.5 6.8-31.6 24.1-61.1 49.7-84.7 28-25.8 64.4-42.1 102.9-46.1 10.2-1 30.5-.5 41 1.1zm164.2 146.2c11.2 9.3 22.2 16 46.8 28.2 26.3 13 31.6 16.3 35.6 21.8 3.9 5.4 3.7 7.5-1.6 12-5.2 4.4-11.2 6.8-24 9.4-12.9 2.6-56.4 2.6-79-.1-8.8-1-16.3-2.1-16.7-2.5-.4-.4.8-4.3 2.7-8.6 4.2-9.8 8.1-23.1 10.2-35 1.8-10.2 2.2-38.1.6-45.5l-1-4.5 9.7 9.5c5.3 5.2 12.8 12.1 16.7 15.3zm-341.6 92.9c6.7 10.3 17.7 21.9 32.9 34.5 19.1 15.9 33.1 24.3 51.5 30.9l8 2.9-47.2.3c-25.9.1-68.7.1-95 0l-47.8-.3 8.5-2.7c10.2-3.3 26.8-11.2 35.1-16.9l6.1-4.1 3.1 3c1.8 1.6 4.3 3.5 5.7 4.2 1.4.7 4 3.1 5.9 5.3 4.9 5.6 12 8.7 20.2 8.7 8.4 0 14.7-2.2 20.3-7.1 6.6-5.8 9.4-16 6.5-23.6-1.3-3.6-6.4-8.8-9.9-10.3-1.5-.6-4.2-2.9-5.9-5.1-3-3.7-9.5-7.9-12.3-7.9-3.9-.1-3.8-1.6.1-10.1 2.2-4.6 4.3-9.7 4.7-11.3l.7-3 1.9 2.5c1 1.3 4.1 5.9 6.9 10.1zm-11.4 17.9c6.4 3.1 8.5 6.9 8.1 14.5-.7 11.4-8.7 17.9-22.4 17.8-5.8 0-7.8-.4-11.7-2.7-5.6-3.3-7.7-6.9-7.7-13.4 0-8.8 4.1-13.9 14.1-17.4 6.5-2.3 13.2-1.9 19.6 1.2zm252.2 33.1c3.2 1.8 6.7 4.6 7.9 6.4 1.1 1.7 4.4 4.3 7.3 5.8 6.9 3.4 18 3.6 24.8.5 4.9-2.1 6.2-1.6 7.6 2.8l.6 2.3-49.8-.1c-30.2 0-49-.4-47.8-.9 1.1-.5 6.5-2.6 12-4.6 10.1-3.7 25.3-10.9 29-13.8 1.1-.8 2.1-1.6 2.3-1.6.2 0 2.9 1.4 6.1 3.2zm-460.2 29.9c7.7 4.8 8.5 9.6 5.8 38.4-.8 8.8-1.5 16.8-1.5 17.7 0 1.6-1.1 1.8-8 1.8-7.4 0-8-.2-8-2.1 0-1.1.7-10.6 1.5-21.1 1.2-14.5 1.3-19.3.4-20.4-1.3-1.6-10.4-2-11.3-.5-.3.5-1.3 9.4-2.1 19.8-1.6 19.6-2 22.3-3.9 23.5-.6.4-4.2.8-7.9.8h-6.8l.6-4.8c1.3-10.1 3.3-38.7 2.9-39.4-.6-.9-7.9-1-11.1-.2-2 .6-2.3 1.3-2.3 5.8 0 3.6-2.4 34.6-3 38.3 0 .2-3.6.3-8 .3h-8v-4.3c0-7.1 4-52.1 4.9-54.2.8-1.9 1.6-2 31.7-1.7 28.7.3 31.1.5 34.1 2.3zm77.3-.9c4.6 2 8.7 6.9 9.6 11.4.4 2 .1 9.9-.5 17.7-1.4 16-3.2 21.2-9.1 25.9-4.9 3.9-11.3 4.8-32.9 4.8-20.8 0-25.1-.8-29.7-5.4-4.6-4.6-5.7-10.9-4.4-25.4 1.6-17.6 4.1-23.7 11.2-27.3 6.4-3.3 11.1-3.8 32.3-3.5 15.5.1 20.8.6 23.5 1.8zm150.9.8c6.5 3.7 8.1 7.4 8.1 19 0 11.1-2.1 25.4-4.4 29.9-2.2 4.1-7.9 7.8-14.4 9.1-3.2.7-12.9 1-25.5.8-19.9-.3-20.3-.3-24.8-3-7.9-4.7-9.3-11.2-6.8-32.3 1.3-11.1 2.4-14.7 5.6-18.6 5.7-6.7 11.2-7.8 37.8-7.6 19.2.2 20.2.3 24.4 2.7zm421.1 0c8.2 4.6 11.4 12.8 8.4 21.6-1.2 3.6-1.4 6.9-1 14.8.4 5.5.3 12.6-.1 15.6l-.8 5.5-6.5.3c-8.6.4-9.3-.5-8.4-11.4.5-6.4.4-8.3-.7-9-4.3-2.6-32.6-2.1-35.4.7-.9.9-1.7 4.8-2.1 10.6l-.7 9.3h-7.8c-6.9 0-7.9-.2-7.9-1.8 0-4 4.1-51 4.8-54.2.5-2.5 1.3-3.6 3.2-4 1.4-.4 13.3-.6 26.5-.6 23.7.1 24.1.1 28.5 2.6zm-492.4 2.6c.4 2.7.2 5.5-.5 7-.9 2.1-1.7 2.4-6.9 2.4-9.1 0-15.2 1.1-16.1 2.9-.5.9-1.4 8.6-2 17.1-.7 8.5-1.4 17.9-1.8 20.7l-.6 5.3H317v-6.8c0-3.7.5-10.8 1-15.7.5-5 1.3-12 1.6-15.8l.7-6.7H296v-5.3c0-5.3 1.2-8 4-9 .8-.3 14.6-.6 30.7-.6l29.2-.1.7 4.6zm145.4-1.7c0 1.5-.3 4.9-.6 7.4l-.7 4.7-20.6.2-20.6.3-1.4 3c-.8 1.6-1.8 7.7-2.3 13.5-.9 10.3-.8 10.5 1.4 12.4 2.1 1.7 3.5 1.8 15.5 1.2 7.3-.3 16-.3 19.4.1l6.2.6-.6 6.5c-.4 3.6-1.2 6.9-1.9 7.4s-11 .7-22.8.6c-19.2-.3-21.9-.5-25.5-2.3-6.5-3.2-8.5-7.3-8.5-16.9 0-22.8 3.7-35.1 11.9-39.3 4.2-2.2 5.4-2.3 27.8-2.3H506v2.9zm20-.7c0 1.3-.7 10.7-1.6 21-.9 10.3-1.4 19.4-1.1 20.2.6 1.4 3.1 1.6 17.9 1.6 9.5 0 17.9-.4 18.5-.8 1.4-.9 2.7-9.7 4.2-28.3.6-7 1.4-13.4 1.7-14.3.5-1.3 2.1-1.6 7.6-1.6h7.1l-.7 9.7c-.3 5.4-.9 15.4-1.2 22.1-.6 10.6-1 13.1-3.3 17.5-2.8 5.5-7 9-13 10.7-4 1.1-44 1.4-51.5.4l-4.6-.7.5-6.1c.3-3.3 1.5-16.4 2.6-29 1-12.6 2.2-23.3 2.5-23.7.3-.5 3.6-.9 7.5-.9 6.5 0 6.9.1 6.9 2.2zm75 4c0 3.5-.7 12.4-1.5 19.8s-1.5 14.7-1.5 16.2v2.8h43v15h-29.5c-26.1 0-29.6-.2-30.2-1.6-.5-1.4 3.2-50 4.2-55.1.6-2.4 2.3-3 10.3-3.2l5.2-.1v6.2zm113.2-5.5c.2.5.2 3.5 0 6.9l-.4 6.1-11.1.7c-6.1.4-11.6 1.1-12 1.5-.5.5-1.7 10.1-2.6 21.3-.9 11.1-2 20.9-2.4 21.5-.5.9-3.3 1.3-7.8 1.3H671v-6.8c0-3.7.7-12.6 1.5-19.7.8-7.2 1.5-14.2 1.5-15.8V435h-9.7c-13.8 0-14.3-.2-14.3-5.9 0-2.5.3-5.6.6-6.9l.6-2.2h31.4c17.2 0 31.4.3 31.6.7zm21.8 2.1c0 1.5-.9 11.3-2 21.7-1.1 10.5-2 19.3-2 19.7 0 .5 8 .8 17.9.8 14.4 0 18.1-.3 19.1-1.5 1.2-1.5 2.2-8.2 3.9-28.2.6-6.6 1.4-12.8 1.7-13.7.5-1.3 2.2-1.6 8-1.6 7 0 7.4.1 7.4 2.2 0 8.6-3.4 41.1-4.6 44.6-2.2 6.1-5.7 9.8-11.2 11.9-4.1 1.6-8 1.8-31.7 1.8h-27l.1-4c.2-6 3.4-47.3 4.1-52.2l.6-4.3H736v2.8zm180.8-1.4c3.9 2 6.5 5.3 9.9 12.1 1.6 3.3 5.3 10.4 8.2 15.8 5.4 9.9 5.4 9.9 5.4 19.1 0 5.1-.3 9.7-.7 10.4-.4.8-3.5 1.2-8.2 1.2H924v-8.5c0-7.8-.2-8.8-2.5-11-2.3-2.4-2.8-2.5-17-2.5-19.5 0-21.5 1.1-23 12.6-1.3 10.1-.6 9.4-9.5 9.4h-8v-5c0-11.7.1-11.9 23.5-44.7 5.8-8.1 9.7-10.2 19.3-10.3 4.4 0 8.4.6 10 1.4z"/><path d="M277.5 102.7c-39.2 3.1-61.7 11.4-80.3 29.6-17.4 16.9-27.6 46.2-23.3 67 2.9 13.7 13.5 28.1 28.1 38.1 10.8 7.3 13.1 8.6 38 21.1 25.5 12.9 35.8 19.3 44.6 28.1 13.4 13.4 12.5 25.6-2.6 34-11.9 6.7-27.1 9.4-55.5 10.1-22.6.5-41.6-.7-67.6-4.4-6.5-.9-12.3-1.3-13.1-1-1.1.4-1.6 3.4-2.1 12.4-.4 6.5-1.5 21.1-2.4 32.5-.9 11.4-1.5 21-1.2 21.2.8.9 21.7 3.6 34.9 4.6 49.3 3.6 72.7 3.7 101.5.5 62.3-7 99.7-32.8 116.3-80.2 2.6-7.4 2.7-8.7 2.6-25.3 0-16.2-.2-18-2.6-24.7-4.9-13.7-12.8-23.8-24.6-31.7-9.4-6.2-14.9-8.8-38.2-18.1-33.9-13.7-49.4-21.5-57.8-29.3-5.3-4.9-5.8-9.5-1.4-12.7 2.6-1.9 4.7-2 43.6-2.5l40.8-.5.4-9c.2-5 1.1-16.8 1.9-26.3 2-22.7 1.9-27.8-.1-28.6-2.4-.9-24.4-3.4-40.6-4.6-13.7-.9-30-1.1-39.3-.3zM836.5 103.1c-53.6 5-86 28.1-96.1 68.7-3.8 15.5-2.8 27.6 3.5 40 8.4 16.6 24 28.4 63.1 47.6 30.3 14.8 45.4 25.9 50.6 37.1 2.9 6.2 3 10 .4 14.3-6.1 10-21.7 16.5-46.2 19.1-19.7 2.2-59.3.8-83.5-2.9-3.7-.6-9.3-1.3-12.5-1.7l-5.6-.6-.6 6.4c-.4 3.5-1.3 15.6-2.1 26.9-.8 11.3-1.7 23-2 26.1-.4 4.1-.2 5.9.8 6.8 4.3 3.5 53.3 7.5 91.7 7.5 37.9 0 58.2-2.4 82.3-9.6 38.3-11.5 62.9-33.9 76.9-70l3.2-8.3V291c-.1-17.9-.3-20-2.4-25.5-3.5-9.1-6.8-14.4-12.9-20.8-10.2-10.7-18.7-15.5-47.4-27.1-37.3-15.1-51-22.1-59.4-30.2-6.2-5.9-6.6-8.3-2.2-12.5l3.1-2.9h80.4l1.8-17.4c1-9.5 1.9-24 2-32.2l.1-14.9-8.1-1.1c-23.8-3.4-61.3-5-78.9-3.3zM672.4 363c-5.3 2.3-8.4 6.3-8.4 10.7 0 7.4 5.5 13 13.9 14 4.3.5 5.9.1 10.6-2.3 6.3-3.2 8.5-6.3 8.5-12.2 0-10-13-15.4-24.6-10.2zM557 105.6c-74 9.3-134.2 63.7-146.7 132.6-2.3 12.6-2.3 36.3 0 48.1 8.1 41.1 33.6 74.7 71.2 93.7 11.8 6 25.7 10.8 39.5 13.7 6.7 1.4 13.3 1.8 31 1.8 19.8 0 23.7-.3 32.5-2.3 24.6-5.6 43.3-13.5 62-26 17.3-11.5 35.8-29.8 46.1-45.4 11.3-17.2 21.2-40.6 23.4-55.3.4-3.3 1.4-9.4 2-13.5 3.3-20.2-1.9-49.6-12.6-71.7-18.4-37.7-53.3-63.9-97.9-73.5-8.8-1.8-41.6-3.3-50.5-2.2zm22.1 21c19.1 3.2 33.5 8.9 48.9 19.4 15 10.4 26.5 23.8 35.6 41.9 5 9.8 5.6 12.6 2.2 9.3-2.8-2.6-7-4.2-10.9-4.2-2.9 0-2.9 0-1.4 3 2.4 4.6 1.9 5.9-3.2 8.1-2.6 1.1-5.1 2.6-5.5 3.2-2.2 3.5.4 8.7 4.4 8.7 2.8 0 12.1-4.8 15.8-8.2 1.7-1.5 3-3.7 3-5 .1-4 1.7 0 3.4 8.4 2.1 10.1 2.1 33.1.1 43-8.2 39.6-35 73.3-72.8 91.8-21.3 10.4-40.9 14.6-63.5 13.7-15.9-.6-27.6-3-40.6-8.2-31.9-12.9-54.5-37-64-68.5-20.5-68.3 30.8-142.8 107.4-156 13.4-2.3 29.1-2.4 41.1-.4z"/><path d="M537.6 135.5c-6 1.7-12.2 7.5-13.8 12.8-1.4 4.6-.1 11 2.4 11.5.9.2 4.9-1.6 9-3.9 6.7-3.9 7.9-4.2 14.8-4.3 6.9-.1 8 .2 12.6 3.1 2.8 1.8 5.6 3.3 6.1 3.3 1.6 0 2.3-2.5 2.3-7.7 0-5.7-3.2-10.4-9.3-13.5-5.3-2.7-17.1-3.4-24.1-1.3z"/><path d="M510.5 152.9c-15 8.4-19.6 14.9-21.3 30.4-1.3 12.1-5.4 17.7-12.7 17.7-6.6 0-10.5 4.7-10.5 12.7 0 4.9-.4 5.4-7.3 9.3-7.1 4-8.1 5.7-7.3 12.4 1.8 13.9 9.6 15.5 12.5 2.6.6-2.9 2.1-5.5 4.1-7.3 2.6-2.3 3.9-2.7 9-2.7 6.2 0 6.4-.2 6-4.7-.1-1.6.6-2.6 2.2-3.2 1.3-.5 3.6-2.3 5.2-4 1.7-1.7 3.4-3.1 3.8-3.1 2.6 0 11 15.1 9.4 16.7-.3.3-2.7-.1-5.4-.7-6.7-1.8-8.2-1-8.2 3.9 0 3.9-.1 4-3.7 4.3l-3.8.3-.5 7.5c-.5 8.2-.1 7.9-7.7 6.6-4-.7-4.3-.6-4.3 1.4 0 2.7 3.4 7.6 6.3 9.2 1.2.6 4.4 1.6 7.2 2.3l5 1.1-.2 4.3c-.4 9.1-9.9 23.2-18 26.7-4.2 1.8-8.7 1.8-12.2 0-4-2.1-5.2-3.9-8-12.4-1.4-4.2-3-7.6-3.6-7.5-1.6.3-2.7 7.3-2.2 13.8 1.2 16.2 13.8 26.4 31.1 25.3 22.5-1.5 43.9-26.6 41-48.3-.8-6.5-2.8-10.1-6.7-12.5-3.6-2.2-7.9-2.5-12.6-.9-4.1 1.4-8.1.4-8.1-2 0-3.3 3.2-5.8 14.5-11.5 19.5-9.8 27.3-17.1 26-24.6-.5-3.3-.4-3.6 3.8-5.8 2.4-1.3 8.3-2.9 13.2-3.7 9.7-1.6 12.7-3.1 14.9-7.4 1.3-2.5 2.3-2.9 7.3-3.5 13.2-1.5 23.3-7.5 23.3-13.8 0-1.8-.4-3.8-.8-4.4-1.8-2.6-15.9-12.4-17.9-12.4-2.8 0-2.4 1.3 3.4 10.3 2.3 3.7 4.3 7.1 4.3 7.5 0 1.3-10.2 5.2-13.3 5.2-1.5 0-4.1-1-5.7-2.1-4-3.1-11-2.1-23 3.2-7.8 3.4-10.7 4.2-16 4.3-6.7.1-11.3-1.5-10.4-3.7.2-.6 2.7-2.8 5.4-4.7 5.6-4 7.5-7.5 6.7-12.6-.8-4.6-1.8-5.7-8.3-9.5-3-1.7-5.4-3.4-5.4-3.8 0-.4 2-2.4 4.5-4.4 4.5-3.8 5.6-5.7 3.3-5.7-.7 0-4.4 1.8-8.3 3.9zm.8 15c5.8 2.5 7.4 6.5 4 10.3-1.2 1.4-3.1 1.8-7.7 1.8-7.4 0-9.7 1.1-7.8 3.7 3.3 4.7 3.6 6.2 1.7 8.3-1 1.1-2.6 2-3.7 2-1.5 0-1.8-.8-1.8-4.8 0-2.6.5-6.6 1-8.9 1.2-5.1 6.6-14.3 8.5-14.3.7 0 3.3.9 5.8 1.9zm24.7 31c0 2-6.4 6.2-11.7 7.7-6.1 1.8-18.6 1.5-20.5-.4-.5-.5-.7-1.9-.4-2.9.6-1.8 1.9-2.1 12.4-2.7 6.4-.3 13.3-1 15.2-1.5 4.8-1.2 5-1.2 5-.2z"/><path d="M533.1 160.4c-1.6 1.9-.9 9.3 1.1 12.6 4.7 7.6 20.6 9.1 26.7 2.6 3-3.2 6.3-9.8 5.3-10.8s-17.8-4.5-25.7-5.3c-4.9-.6-6.3-.4-7.4.9zM598.5 162.6c-11.3 2.4-13.8 4.1-10.6 7.3 1.8 1.8 3.2 2 12.3 1.8 9.5-.2 10.8.1 16.2 2.7 3.4 1.7 9.3 6.1 14.2 10.7 4.6 4.4 8.8 7.9 9.4 7.9 1.8 0 1.1-5-1.6-10.3-5.7-11.4-13-17.5-23.2-19.6-5.2-1.1-12.7-1.3-16.7-.5zM589.8 207c-12.3 2.1-23.2 8.8-28.9 17.8-4.6 7.3-5.3 11-4.3 25.7 1.4 21.5 1.2 27-1.2 30.2-4.4 5.9-9.6 8.4-29.3 14-3.5 1-6.6 2.3-6.8 2.8-.2.6 4.6 2.2 10.9 3.5 8.7 1.9 14.2 2.5 23.8 2.5 6.9 0 13.4-.3 14.4-.8 1.8-.7 1.9-1.6 1.2-14.6-1-21 2.6-40.3 9.9-52.7 9.3-15.8 27.1-19.9 54.4-12.4 4.1 1.1 7.9 1.6 8.3 1.2.4-.4-.5-2.9-2.1-5.4-5.6-8.8-16.9-12.8-35.1-12.7-5.8.1-12.6.5-15.2.9z"/><path d="M616.3 233.8c-.9.6-.1 2.6 2.7 7.4 7.4 12.2 8.9 25.6 4.6 39.3-5.5 17.4-19.6 30.7-31 29.2-3.3-.4-4.9-1.4-7.8-4.9-2.1-2.3-4.2-5.6-4.8-7.3-1.9-5.1-4.3-9.5-5.2-9.5-.4 0-.8 3.3-.8 7.4 0 15.6 9.4 25.2 26.5 27.2 6 .7 16-1.7 22.2-5.2 8.4-5 18.1-17.1 23-28.9 2.6-6.1 5.3-18.9 5.3-24.7 0-6.7-2.7-15.8-6.5-21.4-4.6-7-9.6-9.4-19.6-9.4-4.1 0-7.9.4-8.6.8zM392 362.1c-5.1 2.1-10 8.4-10 13.1 0 7.2 9.3 13.5 18.2 12.5 15.6-1.9 21.5-18.2 8.8-24.7-4.3-2.2-12.7-2.6-17-.9zM233.9 438.1c-1.7 2.5-2.4 5.3-3.1 13.1-.9 11.3-.3 13.2 4.3 14.2 4.1.8 29.7.6 32.8-.3 4.5-1.2 5.9-4.7 6.6-16.2.9-14.6 1.9-13.9-20.5-13.9h-17.9l-2.2 3.1zM383.6 436.3c-2.3 1.7-3.5 8-3.6 19 0 8.2.1 8.8 2.3 9.6 1.2.5 10.2.6 20 .3 15.6-.4 17.9-.7 18.7-2.2.5-1 1.4-7.1 2.1-13.6 1-10.9.9-11.9-.7-13.1-2.5-1.9-36.3-1.8-38.8 0zM810.5 436.5c-.3.8-.7 2.2-1 3-.2.8 0 1.7.6 2 1.3.8 29.2.8 31.8 0 2.8-.8 3.6-3.7 1.5-5.2-1.3-.9-6.3-1.3-17.1-1.3-12.8 0-15.4.3-15.8 1.5zM902.8 436.6c-1.6.8-2.8 2.3-2.8 3.3 0 1.5.9 2 4.6 2.3 2.5.2 4.7.1 4.8-.2.5-.8-2.3-7-3.2-7-.4.1-1.9.8-3.4 1.6z"/></svg>